<svg xmlns="http://www.w3.org/2000/svg" viewBox="0 0 56 56" width="56" height="56">
	<style>
		tspan { white-space:pre }
		.shp0 { opacity: 0.502;fill: #f5c506 } 
		.shp1 { fill: #f5c506 } 
	</style>
	<g id="footer">
		<g id="logo+_footer">
			<path id="Shape 8 copy 4" class="shp0" d="M2.41 15.5L14.63 15.04L14.55 2.81L19.77 7.8L19.85 20.03L7.63 20.49L2.41 15.5ZM10.33 23.07L22.55 22.61L22.47 10.38L27.69 15.37L27.77 27.6L15.55 28.06L10.33 23.07ZM41.45 52.83L41.37 40.6L53.59 40.14L48.37 35.15L36.15 35.61L36.23 47.84L41.45 52.83ZM33.53 45.26L33.45 33.03L45.67 32.56L40.45 27.58L28.23 28.04L28.31 40.27L33.53 45.26ZM40.32 2.23L40.78 14.45L53.01 14.37L48.02 19.59L35.79 19.67L35.33 7.45L40.32 2.23ZM32.75 10.15L33.21 22.37L45.44 22.29L40.45 27.5L28.22 27.59L27.76 15.37L32.75 10.15ZM2.99 41.27L15.22 41.18L15.68 53.4L20.67 48.19L20.21 35.97L7.98 36.05L2.99 41.27ZM10.56 33.35L22.79 33.27L23.25 45.49L28.24 40.27L27.78 28.05L15.55 28.13L10.56 33.35Z" />
			<path id="Shape 8 copy 3" class="shp1" d="M0.99 36.78L9.5 28L0.99 19.22L8.21 19.22L16.72 28L8.21 36.78L0.99 36.78ZM11.95 36.78L20.46 28L11.95 19.22L19.17 19.22L27.68 28L19.17 36.78L11.95 36.78ZM55.01 36.78L46.49 28L55.01 19.22L47.79 19.22L39.28 28L47.79 36.78L55.01 36.78ZM44.05 36.78L35.54 28L44.05 19.22L36.83 19.22L28.32 28L36.83 36.78L44.05 36.78ZM19.22 0.99L28 9.5L36.78 0.99L36.78 8.21L28 16.72L19.22 8.21L19.22 0.99ZM19.22 11.95L28 20.46L36.78 11.95L36.78 19.17L28 27.68L19.22 19.17L19.22 11.95ZM19.22 55.01L28 46.5L36.78 55.01L36.78 47.79L28 39.28L19.22 47.79L19.22 55.01ZM19.22 44.05L28 35.54L36.78 44.05L36.78 36.83L28 28.32L19.22 36.83L19.22 44.05Z" />
		</g>
	</g>
</svg>