<svg width="12" height="12" viewBox="0 0 12 12" fill="none" xmlns="http://www.w3.org/2000/svg">
<path opacity="0.54" fill-rule="evenodd" clip-rule="evenodd" d="M8.33467 7.33334H7.80533L7.62133 7.15068C8.27133 6.39268 8.66667 5.41001 8.66667 4.33334C8.66667 1.94001 6.72667 8.58307e-06 4.33333 8.58307e-06C1.94 8.58307e-06 0 1.94001 0 4.33334C0 6.72668 1.94 8.66668 4.33333 8.66668C5.41 8.66668 6.392 8.27201 7.15 7.62268L7.334 7.80534V8.33334L10.666 11.6607L11.66 10.6667L8.33467 7.33334ZM4.33333 7.33334C2.676 7.33334 1.33333 5.99067 1.33333 4.33334C1.33333 2.67667 2.676 1.33334 4.33333 1.33334C5.99 1.33334 7.33333 2.67667 7.33333 4.33334C7.33333 5.99067 5.99 7.33334 4.33333 7.33334Z" fill="black"/>
</svg>
